<svg width="227" height="64" viewBox="0 0 227 64" fill="none" xmlns="http://www.w3.org/2000/svg">
<path d="M2.50038 32.1986C12.0761 16.1841 24.5068 -4.20898 45.3449 4.99858C60.8258 11.839 63.1643 31.1357 82.5004 30.5986C102.345 30.0473 115.508 13.0578 132.1 4.99858C149.512 -3.45845 165.584 11.1587 175.212 24.9986C185.229 39.3981 196.718 45.4637 212.9 37.7986C230.322 29.5463 203.963 30.5986 196.9 30.5986C191.453 30.5986 200.48 28.7792 203.212 29.3541C209.684 30.7167 218.542 27.5248 224.012 29.0875C225.498 29.5123 220.146 37.9958 219.745 39.3097C217.295 47.3272 215.3 52.3767 215.3 60.9986" stroke="#1C1C1C" stroke-width="5" stroke-linecap="round"/>
</svg>
